<svg xmlns="http://www.w3.org/2000/svg" width="20.344" height="20.344" viewBox="0 0 20.344 20.344">
  <path id="check-btn-white" d="M20.672-7.875A9.86,9.86,0,0,0,19.3-12.961a10.278,10.278,0,0,0-3.712-3.712A9.86,9.86,0,0,0,10.5-18.047a9.86,9.86,0,0,0-5.086,1.374A10.278,10.278,0,0,0,1.7-12.961,9.86,9.86,0,0,0,.328-7.875,9.86,9.86,0,0,0,1.7-2.789,10.278,10.278,0,0,0,5.414.923,9.86,9.86,0,0,0,10.5,2.3,9.86,9.86,0,0,0,15.586.923,10.278,10.278,0,0,0,19.3-2.789,9.86,9.86,0,0,0,20.672-7.875ZM9.311-2.5a.546.546,0,0,1-.451.205A.546.546,0,0,1,8.408-2.5L4.143-6.768a.546.546,0,0,1-.205-.451.546.546,0,0,1,.205-.451l.9-.943a.648.648,0,0,1,.472-.205.648.648,0,0,1,.472.205L8.859-5.742l6.152-6.152a.648.648,0,0,1,.472-.205.648.648,0,0,1,.472.205l.9.943a.546.546,0,0,1,.205.451.546.546,0,0,1-.205.451Z" transform="translate(-0.328 18.047)" fill="#fff"/>
</svg>
