<svg id="Layer_1" data-name="Layer 1" xmlns="http://www.w3.org/2000/svg" viewBox="0 0 11.63 11.63"><defs><style>.cls-1{fill:#fff;}</style></defs><path class="cls-1" d="M11.16.47a.25.25,0,0,1,.29,0,.25.25,0,0,1,.17.26V4a.27.27,0,0,1-.28.28H8a.28.28,0,0,1-.21-.47L9.07,2.55a4.76,4.76,0,0,0-1.49-1,4.63,4.63,0,0,0-4,.22A4.66,4.66,0,0,0,1.92,3.36a4.6,4.6,0,0,0-.7,2.19.25.25,0,0,1-.08.18.26.26,0,0,1-.2.08H.28a.26.26,0,0,1-.2-.08A.31.31,0,0,1,0,5.51,5.91,5.91,0,0,1,.88,2.74,5.68,5.68,0,0,1,3,.74,5.79,5.79,0,0,1,8.05.45,5.38,5.38,0,0,1,9.91,1.71Zm.18,5.34a.28.28,0,0,1,.2.08.3.3,0,0,1,.08.23,5.84,5.84,0,0,1-3,4.77,5.72,5.72,0,0,1-2.84.73,5.74,5.74,0,0,1-2.24-.44A5.55,5.55,0,0,1,1.71,9.91L.47,11.16a.26.26,0,0,1-.29,0A.25.25,0,0,1,0,11V7.59a.32.32,0,0,1,.08-.2.3.3,0,0,1,.2-.08H3.63a.26.26,0,0,1,.26.18.24.24,0,0,1-.05.29L2.55,9.07a4.88,4.88,0,0,0,1.49,1,4.45,4.45,0,0,0,1.77.36A4.55,4.55,0,0,0,8,9.83,4.47,4.47,0,0,0,9.7,8.26a4.55,4.55,0,0,0,.71-2.19.24.24,0,0,1,.08-.18.28.28,0,0,1,.2-.08Z"/></svg>