<svg id="Layer_1" data-name="Layer 1" xmlns="http://www.w3.org/2000/svg" viewBox="0 0 12.01 12.01"><defs><style>.cls-1{fill:#65b32e;}</style></defs><path class="cls-1" d="M8.19,6A3.38,3.38,0,0,1,8.27,7.6,3.2,3.2,0,0,1,7.6,9c-.08.09-.41.44-1,1l-1,1a3.18,3.18,0,0,1-1.48.86,3.23,3.23,0,0,1-1.69,0A3.15,3.15,0,0,1,1,11,3.15,3.15,0,0,1,.11,9.57,3.27,3.27,0,0,1,1,6.4L2.44,4.93a.27.27,0,0,1,.32-.07.25.25,0,0,1,.18.26A3.44,3.44,0,0,0,3.05,6,.25.25,0,0,1,3,6.26L1.9,7.34a1.85,1.85,0,0,0-.58,1.38,1.95,1.95,0,0,0,2,2,1.85,1.85,0,0,0,1.38-.58L6.45,8.35A1.87,1.87,0,0,0,7,7a1.94,1.94,0,0,0-.56-1.41,1.68,1.68,0,0,0-.54-.37.27.27,0,0,1-.16-.29,1.17,1.17,0,0,1,.35-.72l.09-.1a.26.26,0,0,1,.33,0,3.16,3.16,0,0,1,.85.61A3.21,3.21,0,0,1,8.19,6ZM9.57.11A3.27,3.27,0,0,0,6.4,1l-1,1c-.59.59-.93.94-1,1a3.31,3.31,0,0,0-.67,1.43A3.26,3.26,0,0,0,3.83,6a3.2,3.2,0,0,0,.82,1.38,3.08,3.08,0,0,0,.84.6.26.26,0,0,0,.33,0l.09-.1a1.12,1.12,0,0,0,.35-.72.25.25,0,0,0-.16-.28,2,2,0,0,1-.54-.38A2,2,0,0,1,5,5a1.91,1.91,0,0,1,.56-1.38L7.34,1.9a1.86,1.86,0,0,1,1.39-.58,1.9,1.9,0,0,1,1.39.57,1.92,1.92,0,0,1,.57,1.4,1.85,1.85,0,0,1-.58,1.38L9.05,5.75A.29.29,0,0,0,9,6a3.35,3.35,0,0,1,.12.89.25.25,0,0,0,.17.25.26.26,0,0,0,.32-.07l1.48-1.47a3.29,3.29,0,0,0,.85-3.17A3.31,3.31,0,0,0,9.57.11Z"/></svg>