<svg id="Layer_1" data-name="Layer 1" xmlns="http://www.w3.org/2000/svg" viewBox="0 0 11.63 11.63"><defs><style>.cls-1{fill:#d01b1b;}</style></defs><path class="cls-1" d="M10.84,8.72a5.82,5.82,0,0,1-2.12,2.12,5.67,5.67,0,0,1-2.91.78,5.66,5.66,0,0,1-2.9-.78A5.82,5.82,0,0,1,.79,8.72,5.58,5.58,0,0,1,0,5.81a5.57,5.57,0,0,1,.79-2.9A5.82,5.82,0,0,1,2.91.79,5.57,5.57,0,0,1,5.81,0,5.58,5.58,0,0,1,8.72.79a5.82,5.82,0,0,1,2.12,2.12,5.66,5.66,0,0,1,.78,2.9A5.67,5.67,0,0,1,10.84,8.72ZM5.05,7.3a1.05,1.05,0,0,0-.32.76,1,1,0,0,0,.32.76,1,1,0,0,0,.76.32A1.09,1.09,0,0,0,6.89,8.06a1,1,0,0,0-.32-.76A1,1,0,0,0,5.81,7,1.05,1.05,0,0,0,5.05,7.3ZM5,6.3a.25.25,0,0,0,.08.18.26.26,0,0,0,.2.08H6.38a.24.24,0,0,0,.19-.08.23.23,0,0,0,.09-.18l.18-3.18a.3.3,0,0,0-.08-.23.28.28,0,0,0-.2-.08H5.06a.3.3,0,0,0-.2.08.34.34,0,0,0-.08.23Z"/></svg>