<svg id="Layer_1" data-name="Layer 1" xmlns="http://www.w3.org/2000/svg" viewBox="0 0 12.01 12.01"><defs><style>.cls-1{fill:#65b32e;}</style></defs><path class="cls-1" d="M7.22,9.31a.29.29,0,0,1-.09.21L5.61,11a3.18,3.18,0,0,1-1.48.86,3.23,3.23,0,0,1-1.69,0A3.15,3.15,0,0,1,1,11,3.15,3.15,0,0,1,.11,9.57,3.27,3.27,0,0,1,1,6.4L2.49,4.88a.29.29,0,0,1,.21-.09.23.23,0,0,1,.19.09l.54.54a.29.29,0,0,1,.07.19.38.38,0,0,1-.07.21L1.9,7.32a1.92,1.92,0,0,0-.58,1.42,1.82,1.82,0,0,0,.6,1.39,1.93,1.93,0,0,0,1.39.56,1.82,1.82,0,0,0,1.36-.58L6.19,8.58a.44.44,0,0,1,.21-.07.29.29,0,0,1,.19.07l.54.54A.23.23,0,0,1,7.22,9.31Zm4.69,2.09a.34.34,0,0,0,.1-.21.23.23,0,0,0-.1-.19L1,.1A.21.21,0,0,0,.83,0,.29.29,0,0,0,.62.1L.1.62A.29.29,0,0,0,0,.83.21.21,0,0,0,.1,1L11,11.91a.23.23,0,0,0,.19.1.34.34,0,0,0,.21-.1ZM7.32,1.9a1.92,1.92,0,0,1,1.42-.58,1.82,1.82,0,0,1,1.39.6,1.93,1.93,0,0,1,.56,1.39,1.82,1.82,0,0,1-.58,1.36L8.58,6.19a.44.44,0,0,0-.07.21.29.29,0,0,0,.07.19l.54.54a.23.23,0,0,0,.19.09.29.29,0,0,0,.21-.09L11,5.61a3.18,3.18,0,0,0,.86-1.48,3.23,3.23,0,0,0,0-1.69A3.15,3.15,0,0,0,11,1,3.15,3.15,0,0,0,9.57.11,3.27,3.27,0,0,0,6.4,1L4.88,2.49a.29.29,0,0,0-.09.21.23.23,0,0,0,.09.19l.54.54a.29.29,0,0,0,.19.07.38.38,0,0,0,.21-.07Z"/></svg>