<svg id="Layer_1" data-name="Layer 1" xmlns="http://www.w3.org/2000/svg" viewBox="0 0 8.11 8.11"><defs><style>.cls-1{fill:#d01b1b;}</style></defs><path class="cls-1" d="M5,4.05,8,7.1a.31.31,0,0,1,.07.21A.25.25,0,0,1,8,7.5L7.5,8a.25.25,0,0,1-.19.07A.31.31,0,0,1,7.1,8l-3-3L1,8a.31.31,0,0,1-.21.07A.25.25,0,0,1,.61,8L.07,7.5A.25.25,0,0,1,0,7.31.31.31,0,0,1,.07,7.1l3.05-3L.07,1A.31.31,0,0,1,0,.8.25.25,0,0,1,.07.61L.61.07A.25.25,0,0,1,.8,0,.31.31,0,0,1,1,.07l3,3.05L7.1.07A.31.31,0,0,1,7.31,0,.25.25,0,0,1,7.5.07L8,.61A.25.25,0,0,1,8.11.8.31.31,0,0,1,8,1Z"/></svg>