<svg id="Layer_1" data-name="Layer 1" xmlns="http://www.w3.org/2000/svg" viewBox="0 0 10.5 12"><defs><style>.cls-1{fill:#707070;}</style></defs><path class="cls-1" d="M10.5,10.88A1.13,1.13,0,0,1,9.38,12H1.12a1.07,1.07,0,0,1-.79-.33A1.07,1.07,0,0,1,0,10.88V2.62a1.07,1.07,0,0,1,.33-.79,1.07,1.07,0,0,1,.79-.33H2.25V.28a.3.3,0,0,1,.08-.2A.3.3,0,0,1,2.53,0h.94a.3.3,0,0,1,.2.08.3.3,0,0,1,.08.2V1.5h3V.28a.3.3,0,0,1,.08-.2A.3.3,0,0,1,7,0H8a.3.3,0,0,1,.2.08.3.3,0,0,1,.08.2V1.5H9.38a1.07,1.07,0,0,1,.79.33,1.07,1.07,0,0,1,.33.79ZM9.38,3.75H1.12v7a.14.14,0,0,0,0,.1.14.14,0,0,0,.1.05h8a.18.18,0,0,0,.15-.15Zm-6.85,3a.27.27,0,0,1-.28-.28V5.53a.27.27,0,0,1,.28-.28h.94a.27.27,0,0,1,.28.28v.94a.27.27,0,0,1-.28.28Zm1.22,1a.27.27,0,0,0-.28-.28H2.53a.27.27,0,0,0-.28.28v.94A.27.27,0,0,0,2.53,9h.94a.27.27,0,0,0,.28-.28ZM6,5.53a.27.27,0,0,0-.28-.28H4.78a.27.27,0,0,0-.28.28v.94a.27.27,0,0,0,.28.28h.94A.27.27,0,0,0,6,6.47ZM6,7.78a.27.27,0,0,0-.28-.28H4.78a.27.27,0,0,0-.28.28v.94A.27.27,0,0,0,4.78,9h.94A.27.27,0,0,0,6,8.72ZM8.25,5.53A.27.27,0,0,0,8,5.25H7a.27.27,0,0,0-.28.28v.94A.27.27,0,0,0,7,6.75H8a.27.27,0,0,0,.28-.28Zm0,2.25A.27.27,0,0,0,8,7.5H7a.27.27,0,0,0-.28.28v.94A.27.27,0,0,0,7,9H8a.27.27,0,0,0,.28-.28Z"/></svg>