<svg xmlns="http://www.w3.org/2000/svg" width="22.281" height="22.281" viewBox="0 0 22.281 22.281">
  <path id="icon-clock" d="M11.5-19.766a10.8,10.8,0,0,1,5.57,1.5A11.257,11.257,0,0,1,21.136-14.2a10.8,10.8,0,0,1,1.5,5.57,10.8,10.8,0,0,1-1.5,5.57A11.257,11.257,0,0,1,17.07,1.011a10.8,10.8,0,0,1-5.57,1.5,10.8,10.8,0,0,1-5.57-1.5A11.257,11.257,0,0,1,1.864-3.055a10.8,10.8,0,0,1-1.5-5.57,10.8,10.8,0,0,1,1.5-5.57A11.257,11.257,0,0,1,5.93-18.261,10.8,10.8,0,0,1,11.5-19.766ZM11.5.359A8.718,8.718,0,0,0,15.992-.854a9.06,9.06,0,0,0,3.279-3.279,8.718,8.718,0,0,0,1.213-4.492,8.718,8.718,0,0,0-1.213-4.492A9.06,9.06,0,0,0,15.992-16.4,8.718,8.718,0,0,0,11.5-17.609,8.718,8.718,0,0,0,7.008-16.4a9.06,9.06,0,0,0-3.279,3.279A8.718,8.718,0,0,0,2.516-8.625,8.718,8.718,0,0,0,3.729-4.133,9.06,9.06,0,0,0,7.008-.854,8.718,8.718,0,0,0,11.5.359ZM10.467-7.1a.553.553,0,0,1-.225-.449v-7.367A.52.52,0,0,1,10.4-15.3a.52.52,0,0,1,.382-.157h1.437a.52.52,0,0,1,.382.157.52.52,0,0,1,.157.382v6.379l3.01,2.156a.492.492,0,0,1,.2.359.559.559,0,0,1-.112.4l-.809,1.168a.575.575,0,0,1-.359.225.486.486,0,0,1-.4-.09Z" transform="translate(-0.359 19.766)" fill="#65b32e"/>
</svg>
