<svg xmlns="http://www.w3.org/2000/svg" width="18" height="18" viewBox="0 0 18 18">
  <path id="icon-search-white" d="M17.754-.176a.814.814,0,0,1,.246.6.814.814,0,0,1-.246.6L16.769,2a.849.849,0,0,1-1.2,0L12.059-1.512a.814.814,0,0,1-.246-.6v-.562a7.085,7.085,0,0,1-4.5,1.547,7.1,7.1,0,0,1-3.674-.984A7.388,7.388,0,0,1,.984-4.764,7.1,7.1,0,0,1,0-8.437a7.1,7.1,0,0,1,.984-3.674,7.388,7.388,0,0,1,2.654-2.654,7.1,7.1,0,0,1,3.674-.984,7.1,7.1,0,0,1,3.674.984,7.388,7.388,0,0,1,2.654,2.654,7.1,7.1,0,0,1,.984,3.674,7.085,7.085,0,0,1-1.547,4.5h.562a.814.814,0,0,1,.6.246ZM7.312-3.937a4.462,4.462,0,0,0,2.268-.6A4.378,4.378,0,0,0,11.215-6.17a4.462,4.462,0,0,0,.6-2.268,4.462,4.462,0,0,0-.6-2.268A4.378,4.378,0,0,0,9.58-12.34a4.462,4.462,0,0,0-2.268-.6,4.462,4.462,0,0,0-2.268.6A4.378,4.378,0,0,0,3.41-10.705a4.462,4.462,0,0,0-.6,2.268,4.462,4.462,0,0,0,.6,2.268A4.378,4.378,0,0,0,5.045-4.535,4.462,4.462,0,0,0,7.312-3.937Z" transform="translate(0 15.75)" fill="#fff"/>
</svg>
