<svg id="Layer_1" data-name="Layer 1" xmlns="http://www.w3.org/2000/svg" viewBox="0 0 11.63 11.63"><defs><style>.cls-1{fill:#65b32e;}</style></defs><path class="cls-1" d="M10.84,8.72a5.82,5.82,0,0,1-2.12,2.12,5.67,5.67,0,0,1-2.91.78,5.66,5.66,0,0,1-2.9-.78A5.82,5.82,0,0,1,.79,8.72,5.58,5.58,0,0,1,0,5.81a5.57,5.57,0,0,1,.79-2.9A5.82,5.82,0,0,1,2.91.79,5.57,5.57,0,0,1,5.81,0,5.58,5.58,0,0,1,8.72.79a5.82,5.82,0,0,1,2.12,2.12,5.66,5.66,0,0,1,.78,2.9A5.67,5.67,0,0,1,10.84,8.72ZM9.45,4.57a.33.33,0,0,0,.11-.26.35.35,0,0,0-.11-.26l-.52-.53a.36.36,0,0,0-.54,0L4.88,7,3.23,5.39A.34.34,0,0,0,3,5.27a.34.34,0,0,0-.26.12l-.52.54a.31.31,0,0,0-.12.26.32.32,0,0,0,.12.26L4.62,8.88A.31.31,0,0,0,4.88,9a.3.3,0,0,0,.25-.12Z"/></svg>