<svg xmlns="http://www.w3.org/2000/svg" width="14.625" height="18" viewBox="0 0 14.625 18">
  <path id="icon-address" d="M11.25-4.5a1.687,1.687,0,0,0-.334-1.02,1.537,1.537,0,0,0-.9-.6l-.633-.176a3.088,3.088,0,0,1-1.512.387,3.088,3.088,0,0,1-1.512-.387l-.633.176a1.537,1.537,0,0,0-.9.6A1.687,1.687,0,0,0,4.5-4.5v2.531a.814.814,0,0,0,.246.6.814.814,0,0,0,.6.246h5.062a.814.814,0,0,0,.6-.246.814.814,0,0,0,.246-.6ZM7.875-6.75a2.174,2.174,0,0,0,1.6-.65,2.174,2.174,0,0,0,.65-1.6,2.174,2.174,0,0,0-.65-1.6,2.174,2.174,0,0,0-1.6-.65,2.174,2.174,0,0,0-1.6.65A2.174,2.174,0,0,0,5.625-9a2.174,2.174,0,0,0,.65,1.6A2.174,2.174,0,0,0,7.875-6.75Zm6.75-3.375h.7a.407.407,0,0,0,.3-.123.407.407,0,0,0,.123-.3v-1.406a.407.407,0,0,0-.123-.3.407.407,0,0,0-.3-.123h-.7v-1.687a1.627,1.627,0,0,0-.492-1.2,1.627,1.627,0,0,0-1.2-.492H2.812a1.627,1.627,0,0,0-1.2.492,1.627,1.627,0,0,0-.492,1.2V.562a1.627,1.627,0,0,0,.492,1.2,1.627,1.627,0,0,0,1.2.492H12.937a1.627,1.627,0,0,0,1.2-.492,1.627,1.627,0,0,0,.492-1.2V-1.125h.7a.407.407,0,0,0,.3-.123.407.407,0,0,0,.123-.3V-2.953a.407.407,0,0,0-.123-.3.407.407,0,0,0-.3-.123h-.7v-2.25h.7a.407.407,0,0,0,.3-.123.407.407,0,0,0,.123-.3V-7.453a.407.407,0,0,0-.123-.3.407.407,0,0,0-.3-.123h-.7ZM12.937.352a.2.2,0,0,1-.07.141.2.2,0,0,1-.141.07h-9.7a.2.2,0,0,1-.141-.07.2.2,0,0,1-.07-.141v-14.2a.2.2,0,0,1,.07-.141.2.2,0,0,1,.141-.07h9.7a.2.2,0,0,1,.141.07.2.2,0,0,1,.07.141Z" transform="translate(-1.125 15.75)" fill="#65b32e"/>
</svg>
