<svg id="Layer_1" data-name="Layer 1" xmlns="http://www.w3.org/2000/svg" viewBox="0 0 12 12"><defs><style>.cls-1{fill:#0c224c;}</style></defs><path class="cls-1" d="M11.84,10.38a.58.58,0,0,1,0,.8l-.66.66a.58.58,0,0,1-.8,0L8,9.49a.54.54,0,0,1-.16-.4V8.72a4.73,4.73,0,0,1-3,1,4.69,4.69,0,0,1-2.45-.66A4.7,4.7,0,0,1,.66,7.32,4.68,4.68,0,0,1,0,4.88,4.69,4.69,0,0,1,.66,2.43,4.7,4.7,0,0,1,2.43.66,4.69,4.69,0,0,1,4.88,0,4.68,4.68,0,0,1,7.32.66,4.7,4.7,0,0,1,9.09,2.43a4.69,4.69,0,0,1,.66,2.45,4.73,4.73,0,0,1-1,3h.37a.54.54,0,0,1,.4.16Zm-7-2.5a3,3,0,0,0,1.51-.4A3,3,0,0,0,7.48,6.39a3.07,3.07,0,0,0,0-3A3,3,0,0,0,6.39,2.27a3,3,0,0,0-1.51-.39,3,3,0,0,0-1.52.39A3,3,0,0,0,2.27,3.36a3,3,0,0,0-.39,1.52,3,3,0,0,0,.39,1.51A3,3,0,0,0,3.36,7.48,3.05,3.05,0,0,0,4.88,7.88Z"/></svg>