<svg id="Layer_1" data-name="Layer 1" xmlns="http://www.w3.org/2000/svg" viewBox="0 0 10.5 12"><defs><style>.cls-1{fill:#d01b1b;}</style></defs><path class="cls-1" d="M10.34,2a.58.58,0,0,1,.16.4v.28a.27.27,0,0,1-.28.28H9.75v7.88A1.13,1.13,0,0,1,8.62,12H1.87a1.07,1.07,0,0,1-.79-.33,1.07,1.07,0,0,1-.33-.79V3H.28a.3.3,0,0,1-.2-.08A.3.3,0,0,1,0,2.72V2.44A.54.54,0,0,1,.16,2a.55.55,0,0,1,.4-.16H2.3L3.09.54a1.1,1.1,0,0,1,.43-.4A1.16,1.16,0,0,1,4.08,0H6.42A1.19,1.19,0,0,1,7,.14a1.1,1.1,0,0,1,.43.4L8.2,1.88H9.94A.55.55,0,0,1,10.34,2ZM1.87,3v7.73a.18.18,0,0,0,.15.15H8.48a.14.14,0,0,0,.1-.05.13.13,0,0,0,0-.1V3ZM4.5,9.47a.27.27,0,0,1-.28.28H3.66a.28.28,0,0,1-.2-.08.27.27,0,0,1-.09-.2V4.41a.31.31,0,0,1,.29-.29h.56a.27.27,0,0,1,.2.09.28.28,0,0,1,.08.2ZM6.89,1.88,6.47,1.2a.14.14,0,0,0-.12-.08H4.15A.14.14,0,0,0,4,1.2l-.42.68ZM6.28,4.12a.27.27,0,0,0-.2.09.28.28,0,0,0-.08.2V9.47a.27.27,0,0,0,.28.28h.56A.28.28,0,0,0,7,9.67a.26.26,0,0,0,.08-.2V4.41A.24.24,0,0,0,7,4.21a.25.25,0,0,0-.2-.09Z"/></svg>