<svg id="Layer_1" data-name="Layer 1" xmlns="http://www.w3.org/2000/svg" viewBox="0 0 13.5 12.46"><defs><style>.cls-1{fill:#fff;}</style></defs><path class="cls-1" d="M12.38,7.18a1.07,1.07,0,0,1,.79.33,1.09,1.09,0,0,1,.33.8v3a1.11,1.11,0,0,1-1.12,1.12H1.12a1.1,1.1,0,0,1-.79-.32,1.09,1.09,0,0,1-.33-.8v-3a1.09,1.09,0,0,1,.33-.8,1.07,1.07,0,0,1,.79-.33H3.28L2.2,6.11a1.11,1.11,0,0,1-.31-.81,1.1,1.1,0,0,1,.32-.79A1.07,1.07,0,0,1,3,4.18H4.5V1.56a1.09,1.09,0,0,1,.33-.8A1.07,1.07,0,0,1,5.62.43H7.88a1.07,1.07,0,0,1,.79.33,1.09,1.09,0,0,1,.33.8V4.18h1.5a1.07,1.07,0,0,1,.81.33,1.16,1.16,0,0,1,.33.79,1.14,1.14,0,0,1-.34.81L10.22,7.18Zm0,4.13v-3H9.09L7.55,9.86a1.16,1.16,0,0,1-1.6,0L4.41,8.31H1.12v3ZM3,5.31,6.75,9.06,10.5,5.31H7.88V1.56H5.62V5.31Zm7.31,4.5a.56.56,0,0,0,.17.4.54.54,0,0,0,.4.16.53.53,0,0,0,.39-.16.56.56,0,0,0,.17-.4.54.54,0,0,0-.17-.4.53.53,0,0,0-.39-.16.54.54,0,0,0-.4.16A.54.54,0,0,0,10.31,9.81Z"/></svg>