<svg xmlns="http://www.w3.org/2000/svg" width="18" height="18" viewBox="0 0 18 18">
  <path id="icon-print" d="M14.625-9a3.255,3.255,0,0,1,2.391.984A3.255,3.255,0,0,1,18-5.625V-.844a.814.814,0,0,1-.246.6.814.814,0,0,1-.6.246H14.625V1.406a.814.814,0,0,1-.246.6.814.814,0,0,1-.6.246H4.219A.814.814,0,0,1,3.621,2a.814.814,0,0,1-.246-.6V0H.844a.814.814,0,0,1-.6-.246A.814.814,0,0,1,0-.844V-5.625A3.255,3.255,0,0,1,.984-8.016,3.255,3.255,0,0,1,3.375-9v-5.906a.814.814,0,0,1,.246-.6.814.814,0,0,1,.6-.246h7.523a.814.814,0,0,1,.6.246l2.039,2.039a.814.814,0,0,1,.246.6ZM5.062-14.062v6.75h7.875v-5.2l-1.547-1.547ZM12.937.562V-2.25H5.062V.562Zm3.375-2.25V-5.625a1.627,1.627,0,0,0-.492-1.2,1.627,1.627,0,0,0-1.2-.492v.844a.814.814,0,0,1-.246.6.814.814,0,0,1-.6.246H4.219a.814.814,0,0,1-.6-.246.814.814,0,0,1-.246-.6v-.844a1.627,1.627,0,0,0-1.2.492,1.627,1.627,0,0,0-.492,1.2v3.937H3.375V-3.094a.814.814,0,0,1,.246-.6.814.814,0,0,1,.6-.246h9.562a.814.814,0,0,1,.6.246.814.814,0,0,1,.246.6v1.406Zm-.281-3.375a.814.814,0,0,1-.246.6.814.814,0,0,1-.6.246.814.814,0,0,1-.6-.246.814.814,0,0,1-.246-.6.814.814,0,0,1,.246-.6.814.814,0,0,1,.6-.246.814.814,0,0,1,.6.246A.814.814,0,0,1,16.031-5.062Z" transform="translate(0 15.75)" fill="#65b32e"/>
</svg>
