<svg id="Layer_1" data-name="Layer 1" xmlns="http://www.w3.org/2000/svg" viewBox="0 0 3.4 3.7"><defs><style>.cls-1{fill:#66b32e;}</style></defs><path class="cls-1" d="M3,1.2a1.52,1.52,0,0,1,.29.92,1.53,1.53,0,0,1-.21.79,1.56,1.56,0,0,1-.57.57,1.48,1.48,0,0,1-.8.22,1.45,1.45,0,0,1-.79-.22,1.67,1.67,0,0,1-.58-.57,1.53,1.53,0,0,1-.21-.79,1.46,1.46,0,0,1,.19-.74A1.61,1.61,0,0,1,.81.81,1.55,1.55,0,0,1,1.52.54V.36H1.31a.08.08,0,0,1-.07,0,.08.08,0,0,1,0-.07V.09s0,0,0-.06a.09.09,0,0,1,.07,0H2.1l.06,0a.07.07,0,0,1,0,.06V.27a.09.09,0,0,1,0,.07.07.07,0,0,1-.06,0H1.88V.54a1.58,1.58,0,0,1,.87.39L2.91.77,3,.75,3,.77,3.17.9a.14.14,0,0,1,0,.07.14.14,0,0,1,0,.06ZM1.7,3.33a1.18,1.18,0,0,0,.61-.16,1.12,1.12,0,0,0,.44-.45,1.16,1.16,0,0,0,.17-.6,1.19,1.19,0,0,0-.17-.61,1.12,1.12,0,0,0-.44-.45A1.18,1.18,0,0,0,1.7.9a1.18,1.18,0,0,0-.61.16,1.27,1.27,0,0,0-.44.45,1.18,1.18,0,0,0-.16.61,1.15,1.15,0,0,0,.16.6,1.27,1.27,0,0,0,.44.45A1.18,1.18,0,0,0,1.7,3.33Zm.09-.85a.09.09,0,0,0,.07,0s0,0,0-.06v-1a.07.07,0,0,0-.09-.09H1.61s-.05,0-.06,0a.09.09,0,0,0,0,.07v1a.06.06,0,0,0,0,.06.07.07,0,0,0,.06,0Z"/></svg>