<svg xmlns="http://www.w3.org/2000/svg" width="19.25" height="19.25" viewBox="0 0 19.25 19.25">
  <path id="icon-edit" d="M10.613-11.6a.267.267,0,0,0-.193-.086.267.267,0,0,0-.193.086L4.383-5.8,4.125-3.309a.44.44,0,0,0,.15.408.44.44,0,0,0,.408.15l2.449-.258,5.844-5.844a.267.267,0,0,0,.086-.193.267.267,0,0,0-.086-.193Zm2.922-1.848a.994.994,0,0,0-.73-.3.994.994,0,0,0-.73.3l-.988.988a.267.267,0,0,0-.086.193.267.267,0,0,0,.086.193l2.363,2.363a.267.267,0,0,0,.193.086.267.267,0,0,0,.193-.086l.988-.988a.994.994,0,0,0,.3-.73.994.994,0,0,0-.3-.73Zm5.715-2.363a1.989,1.989,0,0,0-.6-1.461,1.989,1.989,0,0,0-1.461-.6H2.062a1.989,1.989,0,0,0-1.461.6A1.989,1.989,0,0,0,0-15.812V-.687A1.989,1.989,0,0,0,.6.773a1.989,1.989,0,0,0,1.461.6H17.187a1.989,1.989,0,0,0,1.461-.6,1.989,1.989,0,0,0,.6-1.461ZM17.187-.945a.248.248,0,0,1-.086.172.248.248,0,0,1-.172.086H2.32a.248.248,0,0,1-.172-.086.248.248,0,0,1-.086-.172V-15.555a.248.248,0,0,1,.086-.172.248.248,0,0,1,.172-.086H16.93a.248.248,0,0,1,.172.086.248.248,0,0,1,.086.172Z" transform="translate(0 17.875)" fill="#65b32e"/>
</svg>
