<svg id="Layer_1" data-name="Layer 1" xmlns="http://www.w3.org/2000/svg" viewBox="0 0 10.69 10.22"><defs><style>.cls-1{fill:#0c224c;}</style></defs><path class="cls-1" d="M4.71.16a.58.58,0,0,1,.8,0l.54.52a.54.54,0,0,1,.16.4.51.51,0,0,1-.19.4L2.44,5.11,6.05,8.74a.61.61,0,0,1,.14.4.54.54,0,0,1-.17.4l-.51.51a.56.56,0,0,1-.8,0L.16,5.51a.58.58,0,0,1,0-.8Zm4.5,9.89a.56.56,0,0,0,.8,0l.51-.51a.56.56,0,0,0,0-.8L6.94,5.11l3.61-3.63a.63.63,0,0,0,.14-.4.54.54,0,0,0-.17-.4L10,.16a.58.58,0,0,0-.8,0L4.66,4.71a.58.58,0,0,0,0,.8Z"/></svg>