<svg xmlns="http://www.w3.org/2000/svg" width="22.5" height="20" viewBox="0 0 22.5 20">
  <path id="icon-upload-green" d="M20.625,11.75A1.867,1.867,0,0,1,22.5,13.625v5A1.867,1.867,0,0,1,20.625,20.5H1.875a1.808,1.808,0,0,1-1.328-.547A1.808,1.808,0,0,1,0,18.625v-5A1.808,1.808,0,0,1,.547,12.3a1.808,1.808,0,0,1,1.328-.547H7.5V10.5H5a1.791,1.791,0,0,1-1.348-.547,1.893,1.893,0,0,1-.547-1.309A1.783,1.783,0,0,1,3.672,7.3l6.25-6.25a1.886,1.886,0,0,1,2.656,0l6.25,6.25a1.783,1.783,0,0,1,.566,1.348,1.893,1.893,0,0,1-.547,1.309A1.791,1.791,0,0,1,17.5,10.5H15v1.25ZM5,8.625H9.375v6.25h3.75V8.625H17.5l-6.25-6.25Zm15.625,10v-5H15v1.25a1.867,1.867,0,0,1-1.875,1.875H9.375A1.867,1.867,0,0,1,7.5,14.875v-1.25H1.875v5Zm-1.562-2.5a.934.934,0,1,1-.273-.664A.9.9,0,0,1,19.062,16.125Z" transform="translate(0 -0.5)" fill="#65b32e"/>
</svg>
