<svg id="Layer_1" data-name="Layer 1" xmlns="http://www.w3.org/2000/svg" viewBox="0 0 10.5 10.5"><defs><style>.cls-1{fill:#65b32e;}</style></defs><path class="cls-1" d="M10.22,4.59a.27.27,0,0,1,.2.09.28.28,0,0,1,.08.2v.74a.28.28,0,0,1-.08.2.27.27,0,0,1-.2.09H5.91v4.31a.27.27,0,0,1-.09.2.28.28,0,0,1-.2.08H4.88a.28.28,0,0,1-.2-.08.27.27,0,0,1-.09-.2V5.91H.28a.27.27,0,0,1-.2-.09A.28.28,0,0,1,0,5.62V4.88a.28.28,0,0,1,.08-.2.27.27,0,0,1,.2-.09H4.59V.28a.27.27,0,0,1,.09-.2A.28.28,0,0,1,4.88,0h.74a.28.28,0,0,1,.2.08.27.27,0,0,1,.09.2V4.59Z"/></svg>