<svg xmlns="http://www.w3.org/2000/svg" width="31" height="31" viewBox="0 0 31 31">
  <path id="icon-green-check" d="M31.5-12a15.025,15.025,0,0,0-2.094-7.75,15.662,15.662,0,0,0-5.656-5.656A15.025,15.025,0,0,0,16-27.5a15.025,15.025,0,0,0-7.75,2.094A15.662,15.662,0,0,0,2.594-19.75,15.025,15.025,0,0,0,.5-12,15.025,15.025,0,0,0,2.594-4.25,15.662,15.662,0,0,0,8.25,1.406,15.025,15.025,0,0,0,16,3.5a15.025,15.025,0,0,0,7.75-2.094A15.662,15.662,0,0,0,29.406-4.25,15.025,15.025,0,0,0,31.5-12ZM14.187-3.812A.832.832,0,0,1,13.5-3.5a.832.832,0,0,1-.687-.312l-6.5-6.5A.832.832,0,0,1,6-11a.832.832,0,0,1,.312-.687l1.375-1.437a.988.988,0,0,1,.719-.312.988.988,0,0,1,.719.312L13.5-8.75l9.375-9.375a.988.988,0,0,1,.719-.312.988.988,0,0,1,.719.313l1.375,1.437A.832.832,0,0,1,26-16a.832.832,0,0,1-.312.687Z" transform="translate(-0.5 27.5)" fill="#65b32e"/>
</svg>
