<svg id="Layer_1" data-name="Layer 1" xmlns="http://www.w3.org/2000/svg" viewBox="0 0 13.5 10.51"><defs><style>.cls-1{fill:#0c224c;}</style></defs><path class="cls-1" d="M13.5,4.7a.55.55,0,0,1-.16.4.59.59,0,0,1-.4.16h-.19l-.61,4.29a1.15,1.15,0,0,1-.39.69,1.08,1.08,0,0,1-.73.27H2.48a1.08,1.08,0,0,1-.73-.27,1.15,1.15,0,0,1-.39-.69L.75,5.26H.56a.59.59,0,0,1-.4-.16A.55.55,0,0,1,0,4.7V4.32a.55.55,0,0,1,.56-.56H2.13L4.64.31A.75.75,0,0,1,5.7.15.71.71,0,0,1,6,.64a.74.74,0,0,1-.14.56L4,3.76H9.52L7.64,1.2A.74.74,0,0,1,7.5.64.71.71,0,0,1,7.8.15.75.75,0,0,1,8.86.31l2.51,3.45h1.57a.55.55,0,0,1,.56.56ZM4.69,5.82a.56.56,0,0,0-.17-.4.54.54,0,0,0-.4-.16.53.53,0,0,0-.39.16.56.56,0,0,0-.17.4V8.45a.56.56,0,0,0,.17.4A.57.57,0,0,0,4.12,9a.58.58,0,0,0,.4-.16.56.56,0,0,0,.17-.4Zm2.62,0a.55.55,0,0,0-.16-.4.58.58,0,0,0-.8,0,.55.55,0,0,0-.16.4V8.45a.55.55,0,0,0,.16.4.58.58,0,0,0,.8,0,.55.55,0,0,0,.16-.4Zm2.63,0a.56.56,0,0,0-.17-.4.53.53,0,0,0-.39-.16.54.54,0,0,0-.4.16.56.56,0,0,0-.17.4V8.45a.56.56,0,0,0,.17.4.58.58,0,0,0,.4.16.57.57,0,0,0,.39-.16.56.56,0,0,0,.17-.4Z"/></svg>