<svg id="Layer_1" data-name="Layer 1" xmlns="http://www.w3.org/2000/svg" viewBox="0 0 11.63 11.63"><defs><style>.cls-1{fill:#d01b1b;}</style></defs><path class="cls-1" d="M9.67,3.09v.27a.28.28,0,0,1-.27.28H9.12V9.43a.83.83,0,0,1-.83.83h-5a.83.83,0,0,1-.83-.83V3.64H2.22A.28.28,0,0,1,2,3.36V3.09a.27.27,0,0,1,.27-.28H3.64l.59-1a.91.91,0,0,1,.71-.4H6.68a.91.91,0,0,1,.71.4l.58,1H9.4A.27.27,0,0,1,9.67,3.09Zm-1.38.55h-5V9.43h5ZM4.43,8.4V4.67a.21.21,0,0,1,.21-.21h.41a.21.21,0,0,1,.21.21V8.4a.2.2,0,0,1-.21.2H4.64A.2.2,0,0,1,4.43,8.4Zm.18-5.59H7l-.3-.5a.12.12,0,0,0-.09-.05H5a.12.12,0,0,0-.09.05ZM6.36,8.4V4.67a.21.21,0,0,1,.21-.21H7a.21.21,0,0,1,.21.21V8.4A.2.2,0,0,1,7,8.6H6.57A.2.2,0,0,1,6.36,8.4Z"/></svg>