<svg id="Layer_1" data-name="Layer 1" xmlns="http://www.w3.org/2000/svg" viewBox="0 0 11.63 11.63"><defs><style>.cls-1{fill:#0c224c;}</style></defs><path class="cls-1" d="M9.67,8.88a.82.82,0,0,1-.24.59.8.8,0,0,1-.58.24H2.77a.8.8,0,0,1-.58-.24A.82.82,0,0,1,2,8.88V2.81A.82.82,0,0,1,2.77,2H8.85a.82.82,0,0,1,.82.83Zm-.82-6s0,0,0-.07a.11.11,0,0,0-.07,0H2.88a.11.11,0,0,0-.07,0s0,.05,0,.07V8.78s0,0,0,.06a.09.09,0,0,0,.07,0H8.74a.09.09,0,0,0,.07,0s0,0,0-.06ZM7.15,5.45a.09.09,0,0,1,0,.08.09.09,0,0,1,0,.07L4.81,8l-1,.1A.2.2,0,0,1,3.66,8a.18.18,0,0,1-.06-.16l.11-1L6.05,4.5a.12.12,0,0,1,.08,0s0,0,.08,0Zm.23-1.69a.4.4,0,0,0-.29-.12.41.41,0,0,0-.3.12l-.39.39a.1.1,0,0,0,0,.08.09.09,0,0,0,0,.08l.94,1a.13.13,0,0,0,.08,0,.11.11,0,0,0,.08,0l.4-.4A.4.4,0,0,0,8,4.57a.38.38,0,0,0-.12-.29Z"/></svg>