<svg id="Layer_1" data-name="Layer 1" xmlns="http://www.w3.org/2000/svg" viewBox="0 0 13.5 12.46"><defs><style>.cls-1{fill:#0c224c;}</style></defs><path class="cls-1" d="M12.38,7.18a1.07,1.07,0,0,1,.79.33,1.09,1.09,0,0,1,.33.8v3a1.11,1.11,0,0,1-1.12,1.12H1.12a1.1,1.1,0,0,1-.79-.32,1.09,1.09,0,0,1-.33-.8v-3a1.09,1.09,0,0,1,.33-.8,1.07,1.07,0,0,1,.79-.33H4.5V6.43H3a1.1,1.1,0,0,1-.81-.32,1.17,1.17,0,0,1-.33-.79,1.14,1.14,0,0,1,.34-.81L6,.76a1.13,1.13,0,0,1,1.6,0L11.3,4.51a1.14,1.14,0,0,1,.34.81,1.17,1.17,0,0,1-.33.79,1.1,1.1,0,0,1-.81.32H9v.75Zm0,4.13v-3H9v.75a1.11,1.11,0,0,1-1.12,1.12H5.62A1.11,1.11,0,0,1,4.5,9.06V8.31H1.12v3ZM3,5.31H5.62V9.06H7.88V5.31H10.5L6.75,1.56Zm8.44,4.5a.54.54,0,0,0-.17-.4.53.53,0,0,0-.39-.16.54.54,0,0,0-.4.16.54.54,0,0,0-.17.4.56.56,0,0,0,.17.4.54.54,0,0,0,.4.16.53.53,0,0,0,.39-.16A.56.56,0,0,0,11.44,9.81Z"/></svg>