<svg id="Layer_1" data-name="Layer 1" xmlns="http://www.w3.org/2000/svg" viewBox="0 0 141.73 28.07"><defs><style>.cls-1{fill:#0c224c;}.cls-2{fill:#65b32e;}</style></defs><title>Webship-Logo-Pos-CMYK</title><polygon class="cls-1" points="107.57 7.03 103.67 21.02 108.69 21.02 112.58 7.03 107.57 7.03"/><polygon class="cls-1" points="141.73 2.88 138.74 2.87 139.54 0 136.3 0 135.5 2.87 132.36 2.86 131.48 5.98 134.63 5.99 133.79 9.03 137.02 9.03 137.87 5.99 140.86 6 141.73 2.88"/><polygon class="cls-1" points="109.56 0 108.39 4.13 113.41 4.13 114.58 0 109.56 0"/><path class="cls-1" d="M70.49,16.53v.06c-.25.88.53,1.23,2.34,1.23H76.4c1.38,0,2-.27,2.27-1.07s-.38-1-1.73-1.07l-4.83-.08c-4.38-.08-6.26-.88-5.33-4.19S70.09,7,74.69,7h5.57c3.56,0,4.87,1.28,4.12,4.06H79.47c-.09-.54-.84-.8-2.22-.8H73.83c-1.2,0-1.83.18-2,.88s.47.88,2.06.9l6,.08c3.47.06,4.69,1.37,3.86,4.35-1,3.58-3.16,4.62-7.43,4.62h-5c-5.07,0-7-.78-6-4.54Z"/><path class="cls-2" d="M36.29,17.85H34.22c-2,0-2.75-.61-2.3-2.21,0-.11.09-.24.14-.38H44.37l.82-2.93c1-3.44-.71-5.31-4.82-5.31H35.78c-4.1,0-6.86,1.9-7.81,5.31l-1,3.73c-.91,3.23.76,5.05,4.93,5.05h4.57c4.35,0,6.63-1.23,7.56-4.54H39.3C38.66,17.77,37.87,17.85,36.29,17.85ZM32.92,12.2c.38-1.36,1.35-1.79,3.28-1.79h2c1.94,0,2.64.43,2.26,1.79v.05H32.9Z"/><path class="cls-1" d="M121.77,21c4.94,0,7.51-1.38,8.45-4.74l1.31-4.71c1-3.44-.78-4.59-5.9-4.59h-6.15a6.39,6.39,0,0,0-6.17,4.73l-4.46,16.35h4.91l1.92-7Zm4.43-7.93L125.68,15c-.48,1.71-1.59,2.32-3.76,2.32h-5.27l1.11-4.23c.48-1.7,1.55-2.29,3.75-2.29h2.23C125.89,10.78,126.69,11.31,126.2,13.1Z"/><path class="cls-2" d="M0,7H5.24l1,10L12.06,7h4.73l1.52,10L23.67,7h5.27L20.67,21.11H14.34l-1.07-8.74L8.43,21.11H2.21Z"/><path class="cls-2" d="M59.29,7h-6.2L55,0H50L46,15.37c-.66,2.37.73,5.54,3.15,5.69h0c2.62,0,2.65,0,6.34,0,4.94,0,7.51-1.39,8.45-4.75l1.31-4.71C66.17,8.19,64.42,7,59.29,7Zm.57,6.11L59.35,15c-.48,1.71-1.59,2.32-3.76,2.32H52.42a1.62,1.62,0,0,1-1.57-2l1.2-4.49h5.36C59.56,10.83,60.36,11.37,59.86,13.15Z"/><path class="cls-1" d="M98.9,7H92.74l1.89-7H89.69L83.88,21.07h4.94l.75-2.69h0L91.63,11h4c3.35,0,3.72.74,3.1,3l-2,7.11h4.92L104.16,12C105.09,8.68,103.35,7,98.9,7Z"/></svg>